<?xml version="1.0" encoding="UTF-8"?>
<svg width="129px" height="110px" viewBox="0 0 129 110" version="1.1" xmlns="http://www.w3.org/2000/svg" xmlns:xlink="http://www.w3.org/1999/xlink">
    <title>bp icon</title>
    <defs>
        <polygon id="path-1" points="1.72411207e-14 0 62 0 62 62 1.72411207e-14 62"></polygon>
        <polygon id="path-3" points="0 0 82 0 82 68 0 68"></polygon>
        <polygon id="path-5" points="0 110 128 110 128 0 0 0"></polygon>
    </defs>
    <g id="Version-1.0" stroke="none" stroke-width="1" fill="none" fill-rule="evenodd">
        <g id="Splash-Screen-Copy-7" transform="translate(-120.000000, -226.000000)">
            <g id="Group-16" transform="translate(26.000000, 85.000000)">
                <g id="bp-icon" transform="translate(94.000000, 141.000000)">
                    <g id="Group-3" transform="translate(67.000000, 0.000000)">
                        <mask id="mask-2" fill="white">
                            <use xlink:href="#path-1"></use>
                        </mask>
                        <g id="Clip-2"></g>
                        <path d="M31.0006066,62 C13.9121774,62 0,48.0965371 0,30.9997572 C0,13.9029773 13.9121774,-0.000485583268 31.0006066,-0.000485583268 C48.0884293,-0.000485583268 62.0006066,13.9029773 62.0006066,30.9997572 C62.0006066,48.0965371 48.0884293,62 31.0006066,62 M31.0006066,6.14517765 C17.2995323,6.14517765 6.158386,17.2923485 6.158386,30.9997572 C6.158386,44.7071659 17.2995323,55.8543368 31.0006066,55.8543368 C44.7010743,55.8543368 55.8422206,44.7071659 55.8422206,30.9997572 C55.8422206,17.2923485 44.7010743,6.14517765 31.0006066,6.14517765" id="Fill-1" fill="#24557C" mask="url(#mask-2)"></path>
                    </g>
                    <g id="Group-6" transform="translate(18.000000, 42.000000)">
                        <mask id="mask-4" fill="white">
                            <use xlink:href="#path-3"></use>
                        </mask>
                        <g id="Clip-5"></g>
                        <path d="M68.3682678,68.0001807 L13.6463135,68.0001807 C6.12173346,68.0001807 0,61.929586 0,54.4835279 L0,0 L6.16730015,0 L6.16730015,54.4835279 C6.16730015,58.5653342 9.51493328,61.8850024 13.6463135,61.8850024 L68.3682678,61.8850024 C72.4844592,61.8850024 75.8478887,58.5653342 75.8478887,54.4835279 L75.8478887,17.2544426 L82,17.2544426 L82,54.4835279 C82,61.929586 75.8928479,68.0001807 68.3682678,68.0001807" id="Fill-4" fill="#24557C" mask="url(#mask-4)"></path>
                    </g>
                    <path d="M10.5720874,7 L27.443126,7 C33.2728961,7 38,11.671879 38,17.4479766 L38,31.5520234 C38,37.3136867 33.2728961,42 27.443126,42 L10.5720874,42 C4.72771239,42 0,37.3136867 0,31.5520234 L0,17.4479766 C0,11.671879 4.72771239,7 10.5720874,7" id="Fill-7" fill="#EE1010"></path>
                    <mask id="mask-6" fill="white">
                        <use xlink:href="#path-5"></use>
                    </mask>
                    <g id="Clip-10"></g>
                    <polygon id="Fill-9" fill="#24557C" mask="url(#mask-6)" points="89 69 105 69 105 59 89 59"></polygon>
                    <path d="M92.3614166,35.8757802 L109.286513,22.1801003 C109.851526,21.7397553 110.259169,22.1801003 109.804757,22.7148502 L96.126271,39.6494418 C95.8911651,39.9637024 95.4986899,40.0897868 95.3261525,39.9320229 L92.047942,36.677905 C91.922805,36.504935 92.047942,36.1273154 92.3614166,35.8757802" id="Fill-11" fill="#24557C" mask="url(#mask-6)"></path>
                </g>
            </g>
        </g>
    </g>
</svg>