<?xml version="1.0" encoding="UTF-8"?>
<svg width="82px" height="269px" viewBox="0 0 82 269" version="1.1" xmlns="http://www.w3.org/2000/svg" xmlns:xlink="http://www.w3.org/1999/xlink">
    <title>calories bg</title>
    <defs>
        <rect id="path-1" x="0" y="0" width="82" height="269" rx="10.5"></rect>
    </defs>
    <g id="Version-1.0" stroke="none" stroke-width="1" fill="none" fill-rule="evenodd">
        <g id="Splash-Screen-Copy-11" transform="translate(-270.000000, -239.000000)">
            <g id="calories-bg" transform="translate(270.000000, 239.000000)">
                <mask id="mask-2" fill="white">
                    <use xlink:href="#path-1"></use>
                </mask>
                <g id="Mask"></g>
                <g id="Group-18" mask="url(#mask-2)">
                    <g transform="translate(2.000000, 20.000000)" id="Group-15">
                        <g transform="translate(0.000000, 0.000000)">
                            <path d="M46.0888185,87.7105857 C47.2158185,84.3895857 47.3598185,80.6295857 47.4008185,77.0605857 C47.4848185,69.9105857 47.2518185,62.7605857 48.5238185,55.6745857 C49.2298185,51.7385857 50.5968185,48.1125857 54.2858185,46.1475857 C56.2478185,45.1015857 58.5818185,44.7515857 60.7578185,44.1225857 C63.5918185,43.3025857 66.5608185,42.8075857 69.2458185,41.6465857 C73.2348185,39.9235857 74.5578185,34.7725857 72.6538185,30.8485857 C71.1478185,27.7425857 69.9628185,24.4725857 68.7758185,21.2235857 C68.3468185,20.0515857 67.9288185,18.7435857 69.0118185,17.5225857 C69.2988185,17.1985857 69.1038185,16.4485857 69.1388185,15.8955857 C69.3198185,12.9835857 69.3398185,10.0485857 69.7638185,7.17358574 C69.9458185,5.92858574 70.6928185,4.47758574 71.6498185,3.68758574 C75.5278185,0.481585738 79.8688185,-1.10841426 84.9088185,0.869585738 C89.8098185,2.79358574 92.3778185,6.40558574 92.7248185,11.6425857 C92.7658185,12.2625857 92.7198185,12.8895857 92.7808185,13.5055857 C92.9518185,15.2215857 92.9098185,16.9255857 93.2198185,18.6745857 C93.5918185,20.7695857 92.2958185,23.1675857 91.6988185,25.4275857 C90.6498185,29.4095857 87.9068185,33.0405857 89.4288185,37.5535857 C89.9988185,39.2435857 90.7408185,40.7535857 92.4318185,41.3305857 C95.3378185,42.3225857 98.2718185,43.4385857 101.282818,43.8715857 C108.208818,44.8665857 112.133818,47.9895857 113.145818,54.9125857 C113.986818,60.6685857 114.450818,66.5405857 114.380818,72.3535857 C114.295818,79.3975857 114.675818,86.2295857 117.520818,92.7945857 C119.475818,97.3045857 119.884818,102.207586 120.166818,107.029586 C120.582818,114.133586 123.299818,120.230586 127.247818,125.957586 C128.509818,127.787586 129.522818,129.799586 130.545818,131.782586 C130.979818,132.624586 131.143818,133.605586 131.430818,134.522586 C131.222818,134.678586 131.014818,134.834586 130.806818,134.991586 C129.587818,133.826586 128.368818,132.661586 127.171818,131.517586 C127.698818,135.519586 128.232818,139.568586 128.765818,143.618586 C126.415818,143.241586 126.652818,141.489586 126.152818,140.254586 C125.612818,138.922586 125.306818,137.496586 124.713818,136.156586 C124.439818,139.134586 125.970818,142.072586 124.486818,145.069586 C122.501818,142.505586 122.689818,139.174586 121.282818,136.060586 C120.575818,139.249586 121.714818,142.409586 119.913818,145.200586 C118.669818,142.564586 118.628818,139.673586 117.901818,136.473586 C117.406818,138.807586 117.000818,140.725586 116.594818,142.642586 C116.337818,142.634586 116.080818,142.625586 115.824818,142.616586 C115.680818,141.967586 115.403818,141.314586 115.415818,140.666586 C115.461818,138.058586 115.436818,135.433586 115.731818,132.848586 C116.407818,126.905586 115.230818,121.389586 112.612818,116.060586 C110.974818,112.724586 109.869818,109.111586 108.103818,105.853586 C104.464818,99.1375857 104.560818,91.6415857 103.230818,84.4425857 C102.712818,81.6465857 102.332818,78.8225857 101.512818,75.9935857 C101.454818,76.4755857 101.355818,76.9545857 101.345818,77.4365857 C101.110818,88.6795857 100.391818,99.9235857 101.398818,111.163586 C101.470818,111.962586 101.558818,112.781586 101.800818,113.538586 C104.655818,122.462586 105.617818,131.667586 105.389818,140.958586 C105.184818,149.337586 104.492818,157.706586 103.942818,166.074586 C103.844818,167.549586 103.411818,169.007586 103.081818,170.461586 C102.294818,173.923586 102.479818,177.272586 103.352818,180.762586 C104.173818,184.042586 104.358818,187.509586 104.564818,190.910586 C105.032818,198.641586 104.447818,206.208586 102.322818,213.782586 C100.740818,219.423586 100.530818,225.440586 101.370818,231.369586 C101.641818,233.282586 102.838818,234.589586 104.402818,235.374586 C106.658818,236.507586 109.067818,237.337586 111.409818,238.295586 C112.175818,238.607586 112.942818,238.915586 114.220818,239.431586" id="Stroke-1" stroke="#979797"></path>
                            <path d="M114.220718,239.431286 C113.125718,240.031286 112.548718,240.466286 111.898718,240.685286 C106.821718,242.396286 101.632718,242.244286 96.4617185,241.323286 C95.4967185,241.151286 94.4887185,240.271286 93.8397185,239.449286 C91.6257185,236.638286 91.0477185,233.283286 91.0517185,229.791286 C91.0527185,229.608286 91.0427185,229.394286 91.1257185,229.243286 C93.7017185,224.558286 92.4137185,219.601286 91.8497185,214.817286 C90.9797185,207.452286 90.2047185,200.126286 90.9157185,192.705286 C91.0197185,191.626286 90.7637185,190.490286 90.5427185,189.408286 C89.7837185,185.697286 88.7837185,182.025286 88.2397185,178.284286 C87.8877185,175.863286 88.2387185,173.346286 88.1537185,170.875286 C88.0657185,168.337286 88.0817185,165.755286 87.6097185,163.278286 C86.3657185,156.750286 84.9087185,150.263286 83.4647185,143.776286 C83.1757185,142.476286 82.5697185,141.247286 82.1097185,139.987286 C81.9157185,139.969286 81.7217185,139.951286 81.5287185,139.934286 C81.0917185,141.034286 80.4967185,142.098286 80.2447185,143.239286 C78.7567185,149.970286 77.1917185,156.690286 75.9857185,163.473286 C75.4497185,166.480286 75.8277185,169.639286 75.5567185,172.707286 C75.2127185,176.594286 75.0397185,180.569286 74.0477185,184.305286 C72.7327185,189.256286 72.6557185,194.161286 72.6627185,199.211286 C72.6707185,204.711286 71.8557185,210.212286 71.4277185,215.716286 C71.2207185,218.379286 70.9077185,221.052286 70.9667185,223.713286 C71.0027185,225.324286 71.7557185,226.906286 72.0067185,228.528286 C72.2097185,229.849286 72.4657185,231.297286 72.1327185,232.536286 C71.4987185,234.901286 70.6277185,237.243286 69.5127185,239.416286 C69.0487185,240.321286 67.7757185,241.181286 66.7497185,241.358286 C61.7027185,242.228286 56.6327185,242.374286 51.6687185,240.752286 C50.9577185,240.520286 50.3057185,240.103286 49.6267185,239.771286 C49.6277185,239.591286 49.6297185,239.410286 49.6307185,239.231286 C50.3877185,238.923286 51.1447185,238.616286 51.9017185,238.307286 C54.3007185,237.327286 56.7677185,236.480286 59.0797185,235.326286 C61.1487185,234.293286 62.2417185,232.459286 62.3407185,230.052286 C62.5987185,223.817286 62.3807185,217.641286 60.5977185,211.595286 C58.3407185,203.947286 58.3757185,196.121286 59.1167185,188.287286 C59.4237185,185.029286 60.2627185,181.822286 60.6147185,178.564286 C60.8517185,176.365286 61.0607185,174.029286 60.5897185,171.909286 C58.4077185,162.086286 58.0557185,152.078286 57.0777185,142.123286 C56.1167185,132.344286 57.5177185,122.945286 60.1467185,113.599286 C60.6227185,111.904286 60.4217185,110.025286 60.5967185,108.236286 C61.6177185,97.7972857 60.6227185,87.3662857 60.4917185,76.9312857 C60.4897185,76.7062857 60.4077185,76.4832857 60.0167185,76.2232857 C59.5657185,79.0082857 59.0567185,81.7852857 58.6767185,84.5792857 C58.1407185,88.5112857 57.7087185,92.4572857 57.2087185,96.3942857 C57.0997185,97.2522857 57.1687185,98.2302857 56.7037185,98.9392857 C46.7307185,114.164286 37.8727185,89.9452857 34.6787185,86.4792857" id="Stroke-3" stroke="#979797"></path>
                            <path d="M36.1804185,62.4128857 C37.0244185,65.0718857 38.0354185,67.7248857 38.4594185,70.4598857 C39.4994185,77.1658857 42.1354185,83.0448857 46.6694185,88.0938857" id="Stroke-5" stroke="#979797"></path>
                            <path d="M34.6172185,86.3013857 C33.0262185,81.5713857 30.4932185,77.7793857 26.6122185,74.7053857 C24.1332185,72.7413857 23.6850356,72.3238855 21.3700356,70.1608855 C20.9307023,69.7502188 25.1764966,67.1751913 34.1074185,62.4358029" id="Stroke-7" stroke="#979797"></path>
                            <path d="M14.2617185,69.3111857 C13.1497185,67.4151857 12.0077185,65.5351857 10.9367185,63.6161857 C10.3237185,62.5171857 8.99471849,62.0531857 7.76571849,62.8011857 C6.05671849,63.8421857 4.31771849,64.8321857 2.59171849,65.8461857 C1.34671849,66.5791857 1.03671849,67.7641857 1.76371849,69.0031857 C3.98171849,72.7861857 6.19871849,76.5691857 8.41871849,80.3501857 C9.13471849,81.5721857 10.3297185,81.8891857 11.5497185,81.1761857 C13.2877185,80.1611857 15.0247185,79.1411857 16.7597185,78.1201857 C18.0087185,77.3851857 18.3117185,76.2201857 17.5787185,74.9671857 C16.4757185,73.0811857 15.3677185,71.1971857 14.2617185,69.3111857 M38.2787185,58.8721857 C37.1957185,57.0251857 36.1507185,55.2441857 35.0797185,53.4181857 C27.5877185,56.9021857 20.5297185,61.0401857 13.8487185,65.8761857 C14.9257185,67.7121857 15.9667185,69.4881857 17.0427185,71.3231857 C24.5267185,67.8521857 31.5817185,63.7081857 38.2787185,58.8721857 M47.0667185,50.0981857 C45.9477185,48.1911857 44.8297185,46.2821857 43.7097185,44.3751857 C42.9937185,43.1591857 41.8027185,42.8511857 40.5747185,43.5691857 C38.8477185,44.5791857 37.1207185,45.5921857 35.3967185,46.6061857 C34.1247185,47.3541857 33.8217185,48.5121857 34.5657185,49.7851857 C35.9117185,52.0851857 37.2627185,54.3841857 38.6117185,56.6841857 C39.4917185,58.1861857 40.3677185,59.6901857 41.2547185,61.1871857 C41.9327185,62.3321857 43.1277185,62.6461857 44.2797185,61.9771857 C46.0637185,60.9411857 47.8427185,59.8971857 49.6177185,58.8461857 C50.7767185,58.1621857 51.0817185,56.9491857 50.4037185,55.7891857 C49.2927185,53.8911857 48.1787185,51.9951857 47.0667185,50.0981857 M38.9927185,60.0561857 C32.2827185,64.8901857 25.2287185,69.0251857 17.7417185,72.5221857 C18.1277185,73.1811857 18.5087185,73.8281857 18.8867185,74.4751857 C19.2407185,75.0811857 19.3957185,75.7361857 19.3387185,76.4311857 C19.2417185,77.6181857 18.6987185,78.5501857 17.6677185,79.1631857 C15.8087185,80.2671857 13.9417185,81.3601857 12.0717185,82.4471857 C10.4507185,83.3881857 8.48371849,82.9221857 7.43571849,81.3621857 C7.29071849,81.1461857 7.15771849,80.9221857 7.02771849,80.6991857 C4.88771849,77.0531857 2.74871849,73.4081857 0.611718494,69.7601857 C-0.248281506,68.2941857 -0.205281506,66.8021857 0.764718494,65.6131857 C1.01771849,65.3031857 1.33571849,65.0211857 1.67771849,64.8161857 C3.55371849,63.6911857 5.44271849,62.5851857 7.33471849,61.4891857 C8.94771849,60.5541857 11.0317185,61.1131857 11.9907185,62.7211857 C12.3767185,63.3661857 12.7517185,64.0151857 13.1427185,64.6811857 C19.8437185,59.8561857 26.8957185,55.7181857 34.3957185,52.2171857 C34.3217185,52.0901857 34.2467185,51.9701857 34.1787185,51.8461857 C33.7867185,51.1461857 33.3217185,50.4751857 33.0237185,49.7381857 C32.3887185,48.1681857 33.0307185,46.4221857 34.4837185,45.5641857 C36.3347185,44.4701857 38.1897185,43.3811857 40.0487185,42.3001857 C41.6737185,41.3541857 43.6357185,41.8071857 44.6927185,43.3591857 C44.7617185,43.4611857 44.8297185,43.5651857 44.8927185,43.6711857 C47.1187185,47.4661857 49.3507185,51.2581857 51.5697185,55.0581857 C52.6767185,56.9561857 52.1457185,58.9441857 50.2567185,60.0531857 C48.4767185,61.0981857 46.6977185,62.1431857 44.9147185,63.1851857 C43.1787185,64.2001857 41.1177185,63.6651857 40.0977185,61.9381857 C39.7337185,61.3231857 39.3737185,60.7051857 38.9927185,60.0561857" id="Fill-9" fill="#979797"></path>
                            <path d="M4.63081849,70.5142857 C4.26881849,69.8962857 3.90381849,69.2792857 3.54381849,68.6602857 C3.29381849,68.2282857 3.36181849,67.8412857 3.71981849,67.6252857 C4.08581849,67.4042857 4.47781849,67.5382857 4.73581849,67.9802857 C5.44981849,69.1952857 6.16281849,70.4102857 6.87481849,71.6252857 C7.14281849,72.0822857 7.08181849,72.4702857 6.71381849,72.6912857 C6.33581849,72.9172857 5.96981849,72.7922857 5.70081849,72.3372857 C5.34181849,71.7312857 4.98681849,71.1222857 4.63081849,70.5142857" id="Fill-11" fill="#979797"></path>
                            <path d="M7.90821849,76.1021857 C7.74621849,75.8251857 7.57721849,75.5531857 7.42521849,75.2721857 C7.22221849,74.9001857 7.33321849,74.5011857 7.67721849,74.3131857 C8.00321849,74.1331857 8.38921849,74.2341857 8.60321849,74.5831857 C8.94421849,75.1401857 9.27521849,75.7041857 9.59521849,76.2721857 C9.80221849,76.6401857 9.68321849,77.0431857 9.34221849,77.2301857 C9.01121849,77.4121857 8.64121849,77.3051857 8.41321849,76.9621857 C8.40021849,76.9421857 8.38721849,76.9191857 8.37521849,76.8991857 C8.22021849,76.6331857 8.06321849,76.3681857 7.90821849,76.1021857" id="Fill-13" fill="#979797"></path>
                        </g>
                    </g>
                </g>
            </g>
        </g>
    </g>
</svg>