<?xml version="1.0" encoding="UTF-8"?>
<svg width="88px" height="111px" viewBox="0 0 88 111" version="1.1" xmlns="http://www.w3.org/2000/svg" xmlns:xlink="http://www.w3.org/1999/xlink">
    <title>calories</title>
    <g id="Version-1.0" stroke="none" stroke-width="1" fill="none" fill-rule="evenodd">
        <g id="Splash-Screen-Copy-11" transform="translate(-144.000000, -212.000000)">
            <g id="calories" transform="translate(147.000000, 216.000000)">
                <path d="M39.6247345,103.912235 C69.9437345,103.846 80.5317345,77.014 81.4527345,70.305 C82.1757345,64.912 82.5707345,58.138 78.8217345,51.89 C74.3497345,44.458 75.8627345,40.315 75.8627345,40.315 C75.8627345,40.315 68.9577345,42.288 68.6277345,52.219 C68.6277345,52.219 68.4967345,43.801 65.2087345,35.843 C61.9197345,27.951 53.3707345,24.005 54.3567345,10.918 C55.0807345,0.921 57.6447345,0 57.6447345,0 C57.6447345,0 23.3147345,2.631 17.7247345,42.617 C17.7247345,42.617 12.6607345,39.263 13.4497345,32.029 C13.4497345,32.029 -1.34826552,42.617 0.0997344808,69.186 C1.21673448,90.561 19.8947345,103.977 39.6247345,103.912235 Z" id="Stroke-1" stroke="#24557C" stroke-width="4.604"></path>
                <path d="M39.4274345,101.741583 C54.6194345,101.6761 59.8814345,88.2591 60.3414345,84.9701 C60.7354345,82.2741 60.8674345,78.8541 59.0254345,75.7631 C56.7904345,72.0811 57.5124345,69.9761 57.5124345,69.9761 C57.5124345,69.9761 54.0274345,70.9631 53.8964345,75.8951 C53.8964345,75.8951 53.8304345,71.6861 52.1864345,67.7401 C50.5424345,63.7941 46.2664345,61.8211 46.7934345,55.2441 C47.1874345,50.2461 48.4374345,49.7851 48.4374345,49.7851 C48.4374345,49.7851 31.2724345,51.1011 28.5104345,71.0941 C28.5104345,71.0941 26.0104345,69.3841 26.3404345,65.8331 C26.3404345,65.8331 18.9744345,71.1601 19.6974345,84.4441 C20.2234345,95.0981 29.5624345,101.8071 39.4274345,101.741583" id="Fill-3" fill="#FF4F6D"></path>
            </g>
        </g>
    </g>
</svg>