<?xml version="1.0" encoding="UTF-8"?>
<svg width="66px" height="269px" viewBox="0 0 66 269" version="1.1" xmlns="http://www.w3.org/2000/svg" xmlns:xlink="http://www.w3.org/1999/xlink">
    <title>heart rate bg</title>
    <defs>
        <rect id="path-1" x="0" y="0" width="66" height="269" rx="10.5"></rect>
        <polygon id="path-3" points="0 0 17 0 17 15 0 15"></polygon>
    </defs>
    <g id="Version-1.0" stroke="none" stroke-width="1" fill="none" fill-rule="evenodd">
        <g id="Splash-Screen-Copy-9" transform="translate(-284.000000, -239.000000)">
            <g id="Group-17" transform="translate(25.000000, 85.000000)">
                <g id="heart-rate-bg" transform="translate(259.000000, 154.000000)">
                    <mask id="mask-2" fill="white">
                        <use xlink:href="#path-1"></use>
                    </mask>
                    <g id="Mask"></g>
                    <g id="Group-7" mask="url(#mask-2)">
                        <g transform="translate(7.000000, 19.000000)">
                            <path d="M83.7896363,239.431239 C82.695368,240.030807 82.1181061,240.466211 81.4679426,240.68522 C76.3904929,242.395871 71.202203,242.24514 66.0310226,241.323216 C65.0665638,241.151218 64.0574713,240.271455 63.4091676,239.448775 C61.1953385,236.638605 60.6173327,233.282967 60.6214242,229.791895 C60.6217961,229.607585 60.6121255,229.394546 60.6954416,229.243069 C63.2719191,224.558458 61.9834944,219.601113 61.4185068,214.816885 C60.5488945,207.452688 59.7745006,200.126548 60.4852915,192.705268 C60.5886928,191.626643 60.3331652,190.490188 60.1118566,189.40746 C59.3538285,185.696633 58.352175,182.024608 57.8083883,178.284307 C57.4568983,175.862905 57.8080164,173.34599 57.7228405,170.876085 C57.635061,168.33753 57.6514267,165.755696 57.1790539,163.277957 C55.934147,156.750991 54.4779741,150.2632 53.0340755,143.775783 C52.7450726,142.476284 52.1387989,141.247675 51.6787003,139.986606 C51.4849159,139.96907 51.2911315,139.951534 51.097347,139.933999 C50.6610531,141.03389 50.0666816,142.098337 49.8145015,143.239269 C48.3263412,149.969946 46.760444,156.689803 45.5542196,163.47346 C45.0197316,166.480252 45.3976299,169.638894 45.1261085,172.707993 C44.7820574,176.594176 44.6098459,180.568782 43.6171191,184.305726 C42.3015423,189.256728 42.2249212,194.16184 42.2323601,199.21134 C42.240543,204.711915 41.425235,210.212863 40.9967519,215.716049 C40.7895774,218.379965 40.4771418,221.052088 40.5362814,223.713392 C40.5723603,225.323681 41.3251812,226.905613 41.5758735,228.527841 C41.7797005,229.848979 42.0348562,231.297343 41.7023355,232.536772 C41.0681657,234.901464 40.1974376,237.243396 39.0815964,239.417062 C38.6177783,240.321077 37.3449754,241.181066 36.3195173,241.358287 C31.2721953,242.227977 26.2025565,242.374232 21.2385507,240.752377 C20.5270159,240.519937 19.8753646,240.103188 19.1958173,239.771504 C19.197305,239.591298 19.1991648,239.410719 19.2006526,239.230886 C19.9571929,238.923081 20.7141053,238.615648 21.4706456,238.307097 C23.8700763,237.32697 26.3364574,236.480412 28.6495964,235.326049 C30.7179941,234.293688 31.8107747,232.459541 31.9104565,230.052317 C32.1682158,223.817113 31.9502548,217.641605 30.1671405,211.595562 C27.9105375,203.947065 27.9455005,196.12172 28.6856752,188.287794 C28.9936474,185.028789 29.8320162,181.822017 30.1831342,178.564503 C30.4204365,176.365094 30.6302146,174.028758 30.1593296,171.908446 C27.977488,162.086657 27.6252541,152.078319 26.6474052,142.123707 C25.6866659,132.344078 27.0866747,122.945009 29.7155967,113.599292 C30.1924329,111.904311 29.9912095,110.024646 30.1660247,108.23639 C31.1877633,97.7971251 30.1928048,87.365695 30.0618795,76.9312801 C30.0589039,76.7066755 29.9767036,76.4831902 29.5861591,76.2235144 C29.1346154,79.0083133 28.6261637,81.7852773 28.2456618,84.5801499 C27.7096861,88.5114771 27.2782275,92.4573552 26.7783306,96.3942789 C26.6693501,97.2524029 26.6035155,98.1586565 26.2735984,98.9391762 C23.7636994,104.881125 21.4293595,110.91523 18.5653669,116.683315 C16.3459587,121.152649 15.4555173,125.624967 16.0264561,130.542764 C16.3913362,133.684244 16.4184883,136.867884 16.526725,140.034735 C16.5572246,140.936512 16.3414953,141.846496 15.9810786,142.807968 C14.0618316,141.306251 14.5483384,138.834854 13.5254839,136.647757 C13.0311662,139.793341 12.5855736,142.626643 12.1403529,145.459944 C11.8662279,145.440916 11.591731,145.421142 11.317234,145.402114 C9.62450284,142.723275 10.9839694,139.514264 10.0860892,136.252647 C9.15770925,139.528442 8.33719397,142.423678 7.5166787,145.31854 C5.72352179,143.888458 6.2449916,142.333761 6.38149618,140.870846 C6.51651298,139.421736 6.78617462,137.985311 6.99669667,136.542917 C6.84345447,136.504114 6.69058421,136.465312 6.53771396,136.426883 C6.10885897,137.813313 5.74844224,139.22586 5.23143579,140.578338 C4.76724582,141.793516 4.92829891,143.420594 2.86213284,144.285061 C2.75687181,139.811996 3.92255399,135.817615 4.26883673,131.701232 C3.01500309,132.919395 1.83146746,134.069281 0.648303774,135.219167 C0.432202516,135.082613 0.216101258,134.945687 0,134.809133 C0.180394338,134.024509 0.209778157,133.160789 0.56833515,132.469066 C1.8522965,129.992446 3.01314336,127.401284 4.64710691,125.167923 C8.65372094,119.690853 10.9464028,113.669435 11.3116548,106.892867 C11.6702118,100.249121 13.5265997,93.9859352 15.6578566,87.710437 C16.7856001,84.389124 16.9291717,80.6290484 16.9708298,77.0603718 C17.053774,69.9103333 16.821307,62.7606679 18.0926222,55.6748022 C18.7989497,51.7393709 20.1662272,48.1128642 23.8559423,46.1466409 C25.8172193,45.1015951 28.1511873,44.7520028 30.3267058,44.1225875 C33.1609426,43.3025195 36.1298243,42.8070461 38.8152822,41.6463401 C42.8036709,39.9230032 44.1270586,34.7716475 42.2234334,30.8481553 C40.7166758,27.7428657 39.5323962,24.4722939 38.3443972,21.2237349 C37.9162861,20.0518359 37.4982176,18.7437565 38.5813275,17.5218625 C38.8680987,17.198387 38.6731985,16.4492075 38.7077895,15.8955309 C38.8892997,12.984252 38.9093849,10.0487216 39.3326606,7.17326002 C39.5160306,5.92786091 40.2625284,4.47688513 41.2188043,3.68666485 C45.0978405,0.480638926 49.438835,-1.10838288 54.4783461,0.870152607 C59.3787489,2.79384278 61.9470436,6.40579867 62.2940702,11.6422206 C62.3353563,12.2619354 62.2892349,12.8891121 62.3506062,13.5058421 C62.5217018,15.221717 62.4792999,16.9252798 62.7895037,18.6747334 C63.1614508,20.7693022 61.8648433,23.1671992 61.2686121,25.4277963 C60.2189774,29.4098648 57.4766115,33.0408487 58.9982471,37.5530886 C59.5684419,39.243966 60.3101044,40.753518 62.0009759,41.3306997 C64.9073704,42.3223926 67.8409171,43.4383269 70.8529446,43.871493 C77.7782275,44.8672899 81.7033851,47.989742 82.7150812,54.9125642 C83.5567974,60.6683377 84.0202435,66.5408908 83.9499455,72.3533751 C83.8651416,79.3982001 84.2448995,86.2288672 87.0902948,92.7942621 C89.0452487,97.3046365 89.4536466,102.207883 89.7359544,107.029793 C90.1521632,114.133195 92.8688647,120.230725 96.817455,125.95777 C98.0790995,127.788186 99.0922834,129.799927 100.114766,131.78294 C100.548456,132.624275 100.713229,133.604775 101,134.522221 C100.792082,134.678549 100.583791,134.834877 100.375501,134.991578 C99.1570022,133.826768 97.9388755,132.661957 96.7412058,131.517295 C97.2682549,135.518764 97.801627,139.568736 98.3353711,143.619082 C95.9854094,143.242253 96.2230836,141.489815 95.7224428,140.254863 C95.1827475,138.922905 94.8762631,137.496554 94.2833795,136.156761 C94.0088825,139.134078 95.5398168,142.073339 94.0564918,145.070058 C92.0717821,142.505386 92.2592434,139.174373 90.8525396,136.060502 C90.1458401,139.250111 91.2839982,142.410246 89.4837743,145.201015 C88.2388674,142.563962 88.1983251,139.673577 87.4719125,136.47352 C86.9768509,138.807618 86.5703127,140.724965 86.1637746,142.642313 C85.9071311,142.634105 85.6508595,142.625523 85.394216,142.617315 C85.2502725,141.967007 84.9739158,141.314459 84.9850742,140.666762 C85.0311957,138.058065 85.0055313,135.432952 85.3004854,132.84776 C85.977801,126.906184 84.8002165,121.389566 82.1824529,116.060243 C80.5436541,112.724379 79.4389712,109.11205 77.6729664,105.853417 C74.0338361,99.1376641 74.1301704,91.6413912 72.7997157,84.4432231 C72.2827092,81.6457388 71.9022074,78.8228839 71.0816921,75.9940595 C71.0240403,76.474982 70.9247304,76.9547853 70.9146879,77.436454 C70.6807331,88.6793709 69.9613875,99.9237803 70.9682482,111.164086 C71.0396621,111.962514 71.1278135,112.781463 71.370323,113.53885 C74.2257608,122.462221 75.1872441,131.66728 74.9588685,140.958897 C74.7535538,149.337919 74.0624761,157.706493 73.5112505,166.074695 C73.4141723,167.549549 72.9815978,169.007613 72.6513088,170.461201 C71.8642688,173.923545 72.0483826,177.273213 72.9220863,180.762793 C73.7429735,184.042319 73.9278312,187.509513 74.1342619,190.910296 C74.6029152,198.641247 74.0170985,206.208782 71.8925368,213.783032 C70.3106458,219.423518 70.1004957,225.441206 70.9403522,231.370097 C71.2111297,233.282967 72.4084274,234.589181 73.9724649,235.374551 C76.2286959,236.507275 78.6363094,237.33779 80.979948,238.295158 C81.7454151,238.607813 82.5131139,238.915246 83.7896363,239.431239" id="Fill-1-Copy-3" stroke="#979797"></path>
                            <g id="Group-6" stroke="none" fill-rule="evenodd" transform="translate(36.000000, 59.000000)">
                                <g id="Group-5">
                                    <mask id="mask-4" fill="white">
                                        <use xlink:href="#path-3"></use>
                                    </mask>
                                    <g id="Clip-4"></g>
                                    <path d="M8.50404589,15 C8.39753167,15 8.28936606,14.9662616 8.20019137,14.896666 C8.06725501,14.8102828 7.93250214,14.7219436 7.80154744,14.6355604 C7.58125291,14.4926205 7.36294005,14.3498436 7.14462718,14.2051108 C5.85341059,13.3500794 4.62511171,12.3765561 3.49738207,11.3148567 C2.84029667,10.6928971 2.23093624,10.0124251 1.68796142,9.29283606 L1.61381431,9.18754625 L1.14498659,8.46600139 C1.08603221,8.35696287 1.02905949,8.24792436 0.970105106,8.14084169 C0.865737683,7.93971534 0.755755556,7.73484028 0.649406473,7.5263795 C0.358928155,6.93049786 0.163239237,6.30299668 0.0664681769,5.65267728 C0.0492937908,5.53989006 0.0378992462,5.42905868 0.02468818,5.31822731 C0.0170918169,5.25612914 0.0114771138,5.19598682 0.00371561237,5.13405164 L-8.25691639e-05,5.08711129 L-8.25691639e-05,4.5458304 C-8.25691639e-05,4.49122965 0.00949545384,4.4442893 0.0152752953,4.41804835 L0.0152752953,4.41984121 C0.0416974277,4.05165285 0.112046355,3.68884308 0.227808323,3.33939827 C0.588635569,2.24363453 1.33291401,1.30792433 2.32390912,0.704708269 C2.91064559,0.328696525 3.59795131,0.0938317993 4.30243142,0.0299407704 C4.40861536,0.0186946454 4.51678097,0.0129900893 4.61949701,0.00744852046 C4.66309353,0.00549267263 4.70669005,0.00369981213 4.7504517,-4.88961955e-05 L4.85663565,-4.88961955e-05 C4.90617714,-4.88961955e-05 4.94597548,0.00549267263 4.97256275,0.00924138096 L4.97817746,0.0111972288 L4.98197564,0.0111972288 C5.31621561,0.0111972288 5.64649227,0.0600934243 5.96355786,0.157885815 C6.97189249,0.47913382 7.84514396,1.06914791 8.50767893,1.87169747 C8.9254789,1.37931278 9.41726084,0.960109397 9.97163021,0.621910711 C10.5108068,0.287460734 11.1337086,0.078836966 11.7696563,0.0261920621 L11.7828674,0.0243992016 C11.8968128,0.0186946454 12.0127399,0.00924138096 12.1285019,-4.88961955e-05 L12.1569057,-4.88961955e-05 L12.4399528,-4.88961955e-05 L12.5139348,0.00744852046 C12.5841185,0.0129900893 12.6544675,0.0186946454 12.7246513,0.0261920621 C13.3645623,0.101329216 13.9739227,0.302455567 14.5322554,0.623866559 C15.6731961,1.25153072 16.5163924,2.3339295 16.8428709,3.59105069 C17.0270001,4.30900983 17.0497892,5.07195347 16.9092565,5.79741002 C16.7593109,6.67314089 16.4232544,7.52817236 15.8536923,8.48474493 L15.8347014,8.51669044 L15.3219469,9.28338279 C14.6518156,10.1666111 13.8923444,10.989697 13.0626894,11.7283556 C11.8056565,12.8426999 10.4480543,13.8649563 9.02423162,14.7613866 C8.99582783,14.7801301 8.96346072,14.7990366 8.93125874,14.819736 C8.89129527,14.8440211 8.85149693,14.8684692 8.81351512,14.8929173 C8.72235876,14.9643058 8.61419315,15 8.50404589,15 L8.50404589,15 Z M2.31251457,8.8398943 C2.83088378,9.52199623 3.40804224,10.1684039 4.03276053,10.758581 C5.12630654,11.7920836 6.32058692,12.7354542 7.57745473,13.5681564 C7.79395108,13.7128891 8.01044743,13.8537102 8.22677864,13.9946942 C8.31991665,14.0546736 8.41288953,14.1167717 8.50586241,14.176914 C8.51362391,14.1731653 8.51923862,14.1713725 8.52485332,14.1676238 C8.55144059,14.1506731 8.57802786,14.1337224 8.60461513,14.1167717 C9.99623582,13.239085 11.3196544,12.2450254 12.5443202,11.156922 C13.3341768,10.4541207 14.0574827,9.67227053 14.6934304,8.83418974 L15.1890105,8.08998964 C15.7073797,7.21996334 16.0132159,6.44756644 16.1479688,5.66587926 L16.1479688,5.65838184 C16.2675289,5.04000795 16.248538,4.38985154 16.0928126,3.78093092 C15.8195087,2.7285218 15.1112304,1.81905257 14.1486391,1.29097365 C13.675848,1.01845886 13.1688734,0.851233868 12.6316784,0.789298687 C12.5709075,0.781638283 12.5121182,0.777889575 12.4531639,0.772348006 L12.3904113,0.76664345 L12.1720984,0.76664345 C12.058153,0.775933727 11.9443727,0.783594131 11.8322437,0.789298687 C11.3196544,0.834283187 10.8164779,1.00346402 10.3816687,1.27402297 C9.81029006,1.62167492 9.31850812,2.06516342 8.91788254,2.59144947 L8.91028618,2.60269559 C8.89311179,2.623232 8.87610254,2.64588723 8.85892816,2.66658662 L8.81351512,2.72672894 L8.78692784,2.74922119 C8.76413876,2.76992058 8.73953314,2.78866412 8.7147624,2.8056148 L8.4204859,2.99924374 L8.19820971,2.72672894 C8.15659485,2.67783275 8.11663137,2.62714369 8.0788147,2.57629165 C7.49009656,1.77390508 6.67745085,1.19334425 5.73005226,0.890676799 C5.48515212,0.815539646 5.22687578,0.775933727 4.96480125,0.777889575 L4.95720489,0.777889575 L4.94977366,0.777889575 C4.91938821,0.777889575 4.88718624,0.774140867 4.85663565,0.768599298 L4.84722276,0.76664345 L4.78645186,0.76664345 C4.74467186,0.770392158 4.70107534,0.772348006 4.65929535,0.774140867 C4.56434081,0.779845423 4.47120279,0.783594131 4.37641339,0.792884408 C3.79347509,0.845529312 3.22771118,1.03915825 2.7379109,1.35307182 C1.89669626,1.86599291 1.27016145,2.6553405 0.964490403,3.57605586 C0.869535864,3.8673142 0.80876496,4.16998165 0.78795753,4.47623482 C0.78597587,4.50638747 0.782177689,4.53817 0.774581326,4.56832265 L0.774581326,5.06445605 C0.782177689,5.12084966 0.78795753,5.17528743 0.795553893,5.23168104 C0.806948438,5.33517799 0.818342983,5.44030481 0.833535709,5.54363877 C0.918912224,6.11311646 1.08983039,6.66743633 1.34612508,7.18622496 C1.4448778,7.38343962 1.5530434,7.58635883 1.65757596,7.78178063 C1.71454869,7.88707043 1.76953975,7.99236024 1.82651247,8.09944291 L1.83031065,8.10694033 L2.31251457,8.8398943 Z" id="Fill-3" fill="#979797" mask="url(#mask-4)"></path>
                                </g>
                            </g>
                        </g>
                    </g>
                </g>
            </g>
        </g>
    </g>
</svg>