<?xml version="1.0" encoding="UTF-8"?>
<svg width="112px" height="100px" viewBox="0 0 112 100" version="1.1" xmlns="http://www.w3.org/2000/svg" xmlns:xlink="http://www.w3.org/1999/xlink">
    <title>Heart Rate</title>
    <defs>
        <polygon id="path-1" points="0 0 112 0 112 100 0 100"></polygon>
    </defs>
    <g id="Version-1.0" stroke="none" stroke-width="1" fill="none" fill-rule="evenodd">
        <g id="heart-rate" transform="translate(-131.000000, -220.000000)">
            <g id="Group" transform="translate(33.000000, 68.000000)">
                <g id="Heart-Rate" transform="translate(98.000000, 152.000000)">
                    <path d="M61.8733813,71 L61.8733813,71 C60.7676538,71 59.7831019,70.2563693 59.448787,69.1846663 L50.5672634,40.008098 L45.441102,55.5926285 C45.1305895,56.5505998 44.284524,57.2439261 43.2891529,57.3445349 C42.2937817,57.4451438 41.3373599,56.9410059 40.8396743,56.0716142 L38.0039485,51.1035051 L34.8555463,56.1591001 C34.3957281,56.9038244 33.5745469,57.3576578 32.7035971,57.3576578 L10.5371145,57.3576578 C9.13169371,57.3576578 8,56.1973752 8,54.784477 C8,53.3606429 9.13169371,52.2003604 10.5371145,52.2003604 L31.2981763,52.2003604 L35.9504545,44.7607729 C36.4232558,44.0040193 37.2325358,43.5381565 38.1391891,43.5633088 C39.0361051,43.5753381 39.8443032,44.0674466 40.2922202,44.8493524 L42.4063019,48.5434471 L48.2530255,30.7652061 C48.6003235,29.7055324 49.5589092,28.9870539 50.6906029,29 C51.7855111,29.0122061 52.7678992,29.7569304 53.0794936,30.8155105 L61.8863644,59.7154045 L67.5329318,41.2930481 C67.8326251,40.3099246 68.6657074,39.604569 69.6729798,39.4908372 C70.681334,39.3771055 71.6507389,39.8812433 72.1484245,40.763758 L78.1563549,51.3047228 L102.462886,51.3047228 C103.856405,51.3047228 105,52.4529761 105,53.8768101 C105,55.2897084 103.856405,56.4488974 102.462886,56.4488974 L76.6881825,56.4488974 C75.7815292,56.4488974 74.9343818,55.9578824 74.4864648,55.1639473 L70.6553678,48.4297154 L64.2990575,69.1846663 C63.9636607,70.2563693 62.9931738,71 61.8733813,71" id="Fill-1" fill="#F26A6A"></path>
                    <g id="Group-5">
                        <mask id="mask-2" fill="white">
                            <use xlink:href="#path-1"></use>
                        </mask>
                        <g id="Clip-4"></g>
                        <path d="M56.0266553,100 C55.3249145,100 54.6122941,99.7750775 54.0247902,99.3111069 C53.1489742,98.7352184 52.2611906,98.1462909 51.3984302,97.5704024 C49.947078,96.6174699 48.5087815,95.6656239 47.0704849,94.700739 C38.5636463,89.0005292 30.4713242,82.5103741 23.041576,75.4323782 C18.7125427,71.2859808 14.6979329,66.7495004 11.120687,61.9522404 L10.6321884,61.2503083 L7.54344109,56.4400093 C7.15503575,55.7130858 6.77968604,54.9861624 6.3912807,54.2722779 C5.70368356,52.9314356 4.97909543,51.5656019 4.27844265,50.1758633 C2.36470314,46.2033191 1.0754585,42.0199779 0.437907989,37.6845152 C0.324759092,36.9326004 0.249689151,36.1937246 0.162651539,35.4548487 C0.112604911,35.0408609 0.075613926,34.6399121 0.0244793286,34.2270109 L-0.000543985079,33.9140753 L-0.000543985079,30.305536 C-0.000543985079,29.941531 0.0625582841,29.6285954 0.10063724,29.4536556 L0.10063724,29.465608 C0.274712465,27.011019 0.738187753,24.5922872 1.50085483,22.2626552 C3.87806963,14.9575635 8.78155113,8.71949557 15.3104601,4.69805513 C19.176018,2.19131017 23.7041498,0.625545328 28.3454305,0.199605136 C29.0449953,0.12463097 29.7576158,0.0866005952 30.4343332,0.049656803 C30.7215574,0.0366178176 31.0087815,0.0246654142 31.2970936,-0.000325974637 L31.9966584,-0.000325974637 C32.3230494,-0.000325974637 32.5852502,0.0366178176 32.7604134,0.0616092064 L32.7974044,0.0746481919 L32.8224277,0.0746481919 C35.0244793,0.0746481919 37.2004196,0.400622829 39.2893224,1.0525721 C45.9324681,3.19422547 51.6856543,7.12765275 56.0505906,12.4779831 C58.8031551,9.19541854 62.0431302,6.40072931 65.6954461,4.14607141 C69.2476686,1.91640489 73.3514921,0.525579773 77.5412652,0.174613747 L77.6283028,0.162661344 C78.3790022,0.12463097 79.1427572,0.0616092064 79.9054243,-0.000325974637 L80.0925552,-0.000325974637 L81.957336,-0.000325974637 L82.4447467,0.049656803 C82.907134,0.0866005952 83.3706093,0.12463097 83.8329966,0.174613747 C88.0488809,0.675528106 92.0634908,2.01637045 95.7419179,4.15911039 C103.258704,8.34353815 108.813879,15.55953 110.964796,23.9403379 C112.177883,28.7267322 112.328023,33.8130231 111.40216,38.6494002 C110.414283,44.4876059 108.200264,50.1878157 104.447855,56.5649662 L104.322739,56.7779363 L100.944591,61.8892186 C96.5296083,67.7774071 91.5260336,73.2646469 86.0600715,78.189037 C77.7784426,85.617999 68.83424,92.4330421 59.4537613,98.4092438 C59.2666304,98.5342007 59.0533882,98.6602442 58.8412341,98.7982402 C58.5779453,98.9601409 58.3157445,99.1231282 58.0655113,99.2861155 C57.4649518,99.7620385 56.7523314,100 56.0266553,100 L56.0266553,100 Z M15.2353901,58.9326286 C18.6505284,63.4799748 22.4529841,67.7893595 26.5687753,71.7238734 C33.7733136,78.6138906 41.6415138,84.903028 49.9220547,90.454376 C51.3483836,91.419261 52.7747125,92.3580679 54.1999534,93.2979615 C54.8135685,93.6978237 55.4260957,94.1118115 56.0386229,94.5127603 C56.0897575,94.4877689 56.1267485,94.4758165 56.1637395,94.4508251 C56.3389027,94.3378206 56.5140659,94.224816 56.6892291,94.1118115 C65.8575536,88.2605667 74.5765465,81.6335024 82.6449332,74.3794801 C87.8486944,69.694138 92.6140037,64.4818036 96.8037768,58.8945983 L100.068775,53.9332643 C103.483914,48.1330889 105.498834,42.9837762 106.386618,37.7725284 L106.386618,37.7225456 C107.174308,33.600053 107.049192,29.2656769 106.023236,25.2062061 C104.222645,18.1901454 99.5563413,12.1270171 93.2145633,8.60649102 C90.0997047,6.78972571 86.7596363,5.67489246 83.2204694,5.26199125 C82.8200964,5.21092189 82.432779,5.1859305 82.0443736,5.14898671 L81.630945,5.11095633 L80.1926484,5.11095633 C79.441949,5.17289151 78.6923376,5.22396087 77.9536058,5.26199125 C74.5765465,5.56188791 71.2615014,6.68976016 68.396876,8.49348648 C64.6324992,10.8111662 61.3925241,13.7677561 58.7531085,17.2763298 L58.7030619,17.351304 C58.589913,17.4882133 58.477852,17.6392482 58.3647031,17.7772441 L58.0655113,18.1781929 L57.8903482,18.3281413 C57.7402083,18.4661372 57.5781007,18.5910942 57.4149052,18.7040987 L55.4761424,19.9949583 L54.0117345,18.1781929 C53.7375661,17.8522183 53.4742773,17.5142913 53.2251321,17.1752776 C49.3465185,11.8260339 43.9926173,7.95562833 37.7509325,5.93784533 C36.1374728,5.43693097 34.4358875,5.17289151 32.7092788,5.1859305 L32.6592322,5.1859305 L32.6102735,5.1859305 C32.410087,5.1859305 32.1979329,5.16093911 31.9966584,5.12399532 L31.9346441,5.11095633 L31.5342711,5.11095633 C31.2590146,5.13594772 30.9717905,5.14898671 30.696534,5.16093911 C30.0709512,5.19896949 29.457336,5.22396087 28.8328412,5.28589606 C24.9923065,5.63686208 21.2649207,6.92772164 18.0380012,9.02047881 C12.4958813,12.4399528 8.36812247,17.70227 6.35428971,23.8403724 C5.72870687,25.7820946 5.32833385,27.7998777 5.19124961,29.8415655 C5.17819397,30.0425832 5.15317066,30.2544667 5.10312403,30.4554844 L5.10312403,33.7630403 C5.15317066,34.1389978 5.19124961,34.5019162 5.24129624,34.8778736 C5.31636618,35.5678533 5.39143612,36.2686987 5.49152938,36.9575918 C6.05400995,40.7541097 7.18005906,44.4495755 8.86858875,47.9081664 C9.5191949,49.2229308 10.2318154,50.5757255 10.9205005,51.8785375 C11.2958502,52.5804696 11.6581442,53.2824016 12.0334939,53.9962861 L12.0585173,54.0462688 L15.2353901,58.9326286 Z" id="Fill-3" fill="#008BC6" mask="url(#mask-2)"></path>
                    </g>
                </g>
            </g>
        </g>
    </g>
</svg>