<?xml version="1.0" encoding="UTF-8"?>
<svg width="107px" height="112px" viewBox="0 0 107 112" version="1.1" xmlns="http://www.w3.org/2000/svg" xmlns:xlink="http://www.w3.org/1999/xlink">
    <title>Blood Oxygen</title>
    <defs>
        <polygon id="path-1" points="0 0 58 0 58 112 0 112"></polygon>
        <polygon id="path-3" points="-2.23412371e-14 1.09402852e-14 11 1.09402852e-14 11 19 -2.23412371e-14 19"></polygon>
    </defs>
    <g id="Version-1.0" stroke="none" stroke-width="1" fill="none" fill-rule="evenodd">
        <g id="Splash-Screen-Copy-8" transform="translate(-158.000000, -220.000000)">
            <g id="Group-16" transform="translate(26.000000, 85.000000)">
                <g id="Blood-Oxygen" transform="translate(132.000000, 135.000000)">
                    <g id="Group-3">
                        <mask id="mask-2" fill="white">
                            <use xlink:href="#path-1"></use>
                        </mask>
                        <g id="Clip-2"></g>
                        <path d="M39.3651515,112.000152 L18.6318182,112.000152 C8.38484848,112.000152 0.0257575758,103.642295 0,93.3638966 L0,34.922815 C0,24.6307199 8.35757576,16.2591666 18.6318182,16.2591666 L21.0454545,16.2591666 L21.0454545,14.4968945 L21.0454545,14.3005792 L19.3242424,14.3005792 C17.4212121,14.2229662 15.6469697,13.3996595 14.3560606,12.0026251 C13.0651515,10.5918944 12.4,8.76418387 12.4787879,6.85733852 C12.6227273,3.16082825 15.6348485,0.144573271 19.3242424,0 L19.4287879,0 L38.7015152,0 C40.6045455,0.065438428 42.3772727,0.888745161 43.669697,2.29947592 C44.9590909,3.70868486 45.6378788,5.52422078 45.5590909,7.44476255 C45.4030303,11.1412728 42.3909091,14.1438314 38.7015152,14.3005792 L38.5954545,14.3005792 L36.980303,14.3005792 L36.980303,14.5090691 L36.980303,16.298734 L39.3924242,16.298734 C49.6272727,16.3124304 57.9727273,24.6702873 58,34.9091186 L58,93.3638966 C57.9727273,103.642295 49.6151515,112.000152 39.3651515,112.000152 L39.3651515,112.000152 Z M18.6318182,21.5885939 C11.2924242,21.5885939 5.31969697,27.5693619 5.31969697,34.922815 L5.31969697,93.3638966 C5.34545455,100.689957 11.3181818,106.65855 18.6318182,106.65855 L39.3651515,106.65855 C46.680303,106.65855 52.6530303,100.689957 52.6787879,93.3638966 L52.6787879,34.922815 C52.6530303,27.6089293 46.6939394,21.6403359 39.3924242,21.6266395 L31.6454545,21.6266395 L31.6454545,14.4968945 C31.6454545,13.9870835 31.5151515,13.5046653 31.2424242,13.0861638 L29.0121212,9.65140721 L26.7818182,13.0861638 C26.5090909,13.5168399 26.3787879,14.0007799 26.3787879,14.4968945 L26.3787879,21.5885939 L18.6318182,21.5885939 Z M28.5818182,8.97267375 L38.530303,8.97267375 C39.4439394,8.92093174 40.2,8.14936702 40.2393939,7.22257626 C40.2530303,6.74015808 40.0833333,6.26839267 39.7439394,5.91685135 C39.4318182,5.5637882 39.0015152,5.35529833 38.530303,5.32942732 L19.5075758,5.32942732 C18.580303,5.38116933 17.8378788,6.13751581 17.7984848,7.0658284 C17.7727273,7.56194299 17.9409091,8.03218658 18.2681818,8.38524972 C18.5939394,8.73831287 19.0378788,8.94680274 19.5075758,8.97267375 L28.5818182,8.97267375 Z" id="Fill-1" fill="#24557C" mask="url(#mask-2)"></path>
                    </g>
                    <path d="M95.2257846,75 C94.046173,74.830344 92.5236509,74.7788413 90.9234026,74.7273386 C85.4551253,74.5455643 77.9781553,74.3107725 73.5187966,68.7727163 C69.8473696,64.2495664 68.9939038,57.1649141 70.8959133,47.1415776 C72.8893655,36.6259358 68.7713931,27.40998 58.6456311,19.7527387 C50.7754572,13.8117495 42.0929668,11.0957388 42,11.0684727 L43.588056,6 C43.9675435,6.11663849 53.149921,8.97655375 61.7805938,15.4492327 C73.5584218,24.3031547 78.5420524,35.5989111 76.1538722,48.1307326 C74.5810567,56.4241839 75.0931361,62.2606529 77.6885866,65.4583653 C80.614755,69.0711291 86.1881915,69.2665364 91.0940957,69.4225593 C92.8513208,69.4876951 94.5171032,69.5407126 96,69.7482382 L95.2257846,75 Z" id="Fill-4" fill="#24557C"></path>
                    <g id="Group-8" transform="translate(96.000000, 63.000000)">
                        <mask id="mask-4" fill="white">
                            <use xlink:href="#path-3"></use>
                        </mask>
                        <g id="Clip-7"></g>
                        <path d="M5.50715317,1.09402852e-14 L5.50715317,1.09402852e-14 C8.5523589,1.09402852e-14 11.0001572,2.40502431 11.0001572,5.37820097 L11.0001572,13.6356564 C11.0001572,16.5949757 8.5523589,19 5.50715317,19 C2.46194743,19 -2.23412371e-14,16.5949757 -2.23412371e-14,13.6356564 L-2.23412371e-14,5.37820097 C-2.23412371e-14,2.40502431 2.46194743,1.09402852e-14 5.50715317,1.09402852e-14" id="Fill-6" fill="#24557C" mask="url(#mask-4)"></path>
                    </g>
                    <path d="M26.506068,75 C22.8243325,75 19.782767,73.7845708 17.4587379,71.3928711 C15.1604976,69.0282814 14,65.693758 14,61.4932225 C14,56.8664584 15.3971481,53.3120433 18.1641383,50.9459475 C20.4623786,48.9819825 23.2688107,48 26.506068,48 C30.1225728,48 33.1520024,49.2139231 35.5018204,51.6056228 C37.8258495,53.9837675 39,57.2143694 39,61.2085681 C39,64.3367546 38.5039442,66.8052658 37.4723908,68.7436269 C36.4287015,70.7347018 34.8753034,72.2980421 32.8637743,73.397501 C30.9326456,74.4578011 28.7921723,75 26.506068,75 M26.506068,56.1947342 C25.4881675,56.1947342 24.7448422,56.5305963 24.0773665,57.2670832 C23.3613471,58.0818877 22.9820995,59.5413064 22.9820995,61.4932225 C22.9820995,63.4571875 23.373483,64.9181123 24.0773665,65.7329168 C24.7569782,66.4829587 25.5018204,66.8188208 26.506068,66.8188208 C27.4981796,66.8188208 28.2430218,66.4829587 28.9089806,65.7329168 C29.628034,64.9060635 30.0179005,63.4059798 30.0179005,61.3772522 C30.0179005,59.4765438 29.6386529,58.1074915 28.9089806,57.279132 C28.2308859,56.5305963 27.4981796,56.1947342 26.506068,56.1947342" id="Fill-9" fill="#EE1010"></path>
                    <path d="M39.7951442,72.1393734 L37.9150228,71.8615527 C38.0713202,70.9339404 38.4248862,70.219324 38.9726859,69.7285075 C39.5341426,69.2392344 40.2261002,69 41.0622155,69 C41.9757208,69 42.6949924,69.251582 43.2169954,69.7547461 C43.7405159,70.2455626 44,70.8938108 44,71.6624479 C44,72.0591141 43.92261,72.4573237 43.7647951,72.8539898 C43.5963581,73.2383084 43.3338392,73.6627566 42.969651,74.0995524 C42.707132,74.4036117 42.2776935,74.8404075 41.6752656,75.4114833 C41.0758725,75.9671246 40.6828528,76.3514431 40.4871017,76.5490045 C40.2913505,76.7620003 40.1092564,76.9873437 39.9256449,77.2126871 L43.3338392,77.2126871 L42.969651,79 L37,79 C37.0652504,78.4968359 37.2094082,78.0338015 37.430956,77.5970057 C37.6403642,77.1586665 37.9286798,76.7481093 38.2534143,76.3637907 C38.5811836,75.9933632 39.1942337,75.3713536 40.0698027,74.5224572 C40.7359636,73.874209 41.15478,73.4636518 41.323217,73.264547 C41.6373293,72.9203581 41.8467375,72.6162988 41.9635812,72.3508257 C42.0804249,72.0992437 42.1335357,71.8615527 42.1335357,71.6501003 C42.1335357,71.318259 42.0409712,71.0404383 41.8467375,70.8413335 C41.6509863,70.6283377 41.414264,70.5233832 41.1138088,70.5233832 C40.801214,70.5233832 40.538695,70.6422287 40.3186646,70.8675722 C40.0819423,71.1068066 39.9119879,71.5297114 39.7951442,72.1393734" id="Fill-11" fill="#EE1010"></path>
                </g>
            </g>
        </g>
    </g>
</svg>