<?xml version="1.0" encoding="UTF-8"?>
<svg width="60px" height="270px" viewBox="0 0 60 270" version="1.1" xmlns="http://www.w3.org/2000/svg" xmlns:xlink="http://www.w3.org/1999/xlink">
    <title>oxygen bg</title>
    <defs>
        <rect id="path-1" x="0" y="0" width="60" height="270" rx="10.5"></rect>
    </defs>
    <g id="Version-1.0" stroke="none" stroke-width="1" fill="none" fill-rule="evenodd">
        <g id="Splash-Screen-Copy-8" transform="translate(-292.000000, -248.000000)">
            <g id="Group-16" transform="translate(26.000000, 85.000000)">
                <g id="oxygen-bg" transform="translate(266.000000, 163.000000)">
                    <mask id="mask-2" fill="white">
                        <use xlink:href="#path-1"></use>
                    </mask>
                    <g id="Mask"></g>
                    <g id="Group-9" mask="url(#mask-2)" stroke="#979797">
                        <g transform="translate(0.000000, 9.000000)">
                            <path d="M83.7896363,239.431239 C82.695368,240.030807 82.1181061,240.466211 81.4679426,240.68522 C76.3904929,242.395871 71.202203,242.24514 66.0310226,241.323216 C65.0665638,241.151218 64.0574713,240.271455 63.4091676,239.448775 C61.1953385,236.638605 60.6173327,233.282967 60.6214242,229.791895 C60.6217961,229.607585 60.6121255,229.394546 60.6954416,229.243069 C63.2719191,224.558458 61.9834944,219.601113 61.4185068,214.816885 C60.5488945,207.452688 59.7745006,200.126548 60.4852915,192.705268 C60.5886928,191.626643 60.3331652,190.490188 60.1118566,189.40746 C59.3538285,185.696633 58.352175,182.024608 57.8083883,178.284307 C57.4568983,175.862905 57.8080164,173.34599 57.7228405,170.876085 C57.635061,168.33753 57.6514267,165.755696 57.1790539,163.277957 C55.934147,156.750991 54.4779741,150.2632 53.0340755,143.775783 C52.7450726,142.476284 52.1387989,141.247675 51.6787003,139.986606 C51.4849159,139.96907 51.2911315,139.951534 51.097347,139.933999 C50.6610531,141.03389 50.0666816,142.098337 49.8145015,143.239269 C48.3263412,149.969946 46.760444,156.689803 45.5542196,163.47346 C45.0197316,166.480252 45.3976299,169.638894 45.1261085,172.707993 C44.7820574,176.594176 44.6098459,180.568782 43.6171191,184.305726 C42.3015423,189.256728 42.2249212,194.16184 42.2323601,199.21134 C42.240543,204.711915 41.425235,210.212863 40.9967519,215.716049 C40.7895774,218.379965 40.4771418,221.052088 40.5362814,223.713392 C40.5723603,225.323681 41.3251812,226.905613 41.5758735,228.527841 C41.7797005,229.848979 42.0348562,231.297343 41.7023355,232.536772 C41.0681657,234.901464 40.1974376,237.243396 39.0815964,239.417062 C38.6177783,240.321077 37.3449754,241.181066 36.3195173,241.358287 C31.2721953,242.227977 26.2025565,242.374232 21.2385507,240.752377 C20.5270159,240.519937 19.8753646,240.103188 19.1958173,239.771504 C19.197305,239.591298 19.1991648,239.410719 19.2006526,239.230886 C19.9571929,238.923081 20.7141053,238.615648 21.4706456,238.307097 C23.8700763,237.32697 26.3364574,236.480412 28.6495964,235.326049 C30.7179941,234.293688 31.8107747,232.459541 31.9104565,230.052317 C32.1682158,223.817113 31.9502548,217.641605 30.1671405,211.595562 C27.9105375,203.947065 27.9455005,196.12172 28.6856752,188.287794 C28.9936474,185.028789 29.8320162,181.822017 30.1831342,178.564503 C30.4204365,176.365094 30.6302146,174.028758 30.1593296,171.908446 C27.977488,162.086657 27.6252541,152.078319 26.6474052,142.123707 C25.6866659,132.344078 27.0866747,122.945009 29.7155967,113.599292 C30.1924329,111.904311 29.9912095,110.024646 30.1660247,108.23639 C31.1877633,97.7971251 30.1928048,87.365695 30.0618795,76.9312801 C30.0589039,76.7066755 29.9767036,76.4831902 29.5861591,76.2235144 C29.1346154,79.0083133 28.6261637,81.7852773 28.2456618,84.5801499 C27.7096861,88.5114771 27.2782275,92.4573552 26.7783306,96.3942789 C26.6693501,97.2524029 26.6035155,98.1586565 26.2735984,98.9391762 C23.7636994,104.881125 21.4293595,110.91523 18.5653669,116.683315 C16.3459587,121.152649 15.4555173,125.624967 16.0264561,130.542764 C16.3913362,133.684244 16.4184883,136.867884 16.526725,140.034735 C16.5572246,140.936512 16.3414953,141.846496 15.9810786,142.807968 C14.0618316,141.306251 14.5483384,138.834854 13.5254839,136.647757 C13.0311662,139.793341 12.5855736,142.626643 12.1403529,145.459944 C11.8662279,145.440916 11.591731,145.421142 11.317234,145.402114 C9.62450284,142.723275 10.9839694,139.514264 10.0860892,136.252647 C9.15770925,139.528442 8.33719397,142.423678 7.5166787,145.31854 C5.72352179,143.888458 6.2449916,142.333761 6.38149618,140.870846 C6.51651298,139.421736 6.78617462,137.985311 6.99669667,136.542917 C6.84345447,136.504114 6.69058421,136.465312 6.53771396,136.426883 C6.10885897,137.813313 5.74844224,139.22586 5.23143579,140.578338 C4.76724582,141.793516 4.92829891,143.420594 2.86213284,144.285061 C2.75687181,139.811996 3.92255399,135.817615 4.26883673,131.701232 C3.01500309,132.919395 1.83146746,134.069281 0.648303774,135.219167 C0.432202516,135.082613 0.216101258,134.945687 0,134.809133 C0.180394338,134.024509 0.209778157,133.160789 0.56833515,132.469066 C1.8522965,129.992446 3.01314336,127.401284 4.64710691,125.167923 C8.65372094,119.690853 10.9464028,113.669435 11.3116548,106.892867 C11.6702118,100.249121 13.5265997,93.9859352 15.6578566,87.710437 C16.7856001,84.389124 16.9291717,80.6290484 16.9708298,77.0603718 C17.053774,69.9103333 16.821307,62.7606679 18.0926222,55.6748022 C18.7989497,51.7393709 20.1662272,48.1128642 23.8559423,46.1466409 C25.8172193,45.1015951 28.1511873,44.7520028 30.3267058,44.1225875 C33.1609426,43.3025195 36.1298243,42.8070461 38.8152822,41.6463401 C42.8036709,39.9230032 44.1270586,34.7716475 42.2234334,30.8481553 C40.7166758,27.7428657 39.5323962,24.4722939 38.3443972,21.2237349 C37.9162861,20.0518359 37.4982176,18.7437565 38.5813275,17.5218625 C38.8680987,17.198387 38.6731985,16.4492075 38.7077895,15.8955309 C38.8892997,12.984252 38.9093849,10.0487216 39.3326606,7.17326002 C39.5160306,5.92786091 40.2625284,4.47688513 41.2188043,3.68666485 C45.0978405,0.480638926 49.438835,-1.10838288 54.4783461,0.870152607 C59.3787489,2.79384278 61.9470436,6.40579867 62.2940702,11.6422206 C62.3353563,12.2619354 62.2892349,12.8891121 62.3506062,13.5058421 C62.5217018,15.221717 62.4792999,16.9252798 62.7895037,18.6747334 C63.1614508,20.7693022 61.8648433,23.1671992 61.2686121,25.4277963 C60.2189774,29.4098648 57.4766115,33.0408487 58.9982471,37.5530886 C59.5684419,39.243966 60.3101044,40.753518 62.0009759,41.3306997 C64.9073704,42.3223926 67.8409171,43.4383269 70.8529446,43.871493 C77.7782275,44.8672899 81.7033851,47.989742 82.7150812,54.9125642 C83.5567974,60.6683377 84.0202435,66.5408908 83.9499455,72.3533751 C83.8651416,79.3982001 84.2448995,86.2288672 87.0902948,92.7942621 C89.0452487,97.3046365 89.4536466,102.207883 89.7359544,107.029793 C90.1521632,114.133195 92.8688647,120.230725 96.817455,125.95777 C98.0790995,127.788186 99.0922834,129.799927 100.114766,131.78294 C100.548456,132.624275 100.713229,133.604775 101,134.522221 C100.792082,134.678549 100.583791,134.834877 100.375501,134.991578 C99.1570022,133.826768 97.9388755,132.661957 96.7412058,131.517295 C97.2682549,135.518764 97.801627,139.568736 98.3353711,143.619082 C95.9854094,143.242253 96.2230836,141.489815 95.7224428,140.254863 C95.1827475,138.922905 94.8762631,137.496554 94.2833795,136.156761 C94.0088825,139.134078 95.5398168,142.073339 94.0564918,145.070058 C92.0717821,142.505386 92.2592434,139.174373 90.8525396,136.060502 C90.1458401,139.250111 91.2839982,142.410246 89.4837743,145.201015 C88.2388674,142.563962 88.1983251,139.673577 87.4719125,136.47352 C86.9768509,138.807618 86.5703127,140.724965 86.1637746,142.642313 C85.9071311,142.634105 85.6508595,142.625523 85.394216,142.617315 C85.2502725,141.967007 84.9739158,141.314459 84.9850742,140.666762 C85.0311957,138.058065 85.0055313,135.432952 85.3004854,132.84776 C85.977801,126.906184 84.8002165,121.389566 82.1824529,116.060243 C80.5436541,112.724379 79.4389712,109.11205 77.6729664,105.853417 C74.0338361,99.1376641 74.1301704,91.6413912 72.7997157,84.4432231 C72.2827092,81.6457388 71.9022074,78.8228839 71.0816921,75.9940595 C71.0240403,76.474982 70.9247304,76.9547853 70.9146879,77.436454 C70.6807331,88.6793709 69.9613875,99.9237803 70.9682482,111.164086 C71.0396621,111.962514 71.1278135,112.781463 71.370323,113.53885 C74.2257608,122.462221 75.1872441,131.66728 74.9588685,140.958897 C74.7535538,149.337919 74.0624761,157.706493 73.5112505,166.074695 C73.4141723,167.549549 72.9815978,169.007613 72.6513088,170.461201 C71.8642688,173.923545 72.0483826,177.273213 72.9220863,180.762793 C73.7429735,184.042319 73.9278312,187.509513 74.1342619,190.910296 C74.6029152,198.641247 74.0170985,206.208782 71.8925368,213.783032 C70.3106458,219.423518 70.1004957,225.441206 70.9403522,231.370097 C71.2111297,233.282967 72.4084274,234.589181 73.9724649,235.374551 C76.2286959,236.507275 78.6363094,237.33779 80.979948,238.295158 C81.7454151,238.607813 82.5131139,238.915246 83.7896363,239.431239" id="Fill-1-Copy-2"></path>
                            <path d="M50.2904488,58.5907447 C37.8080844,58.5907447 29.2871315,86.4899696 37.8080844,86.4899696 C43.398445,86.4899696 45.0293762,80.7482041 49.5629872,80.7482041 C51.9396076,80.7482041 55.1528209,86.4899696 60.0684215,86.4899696 C74.3609595,86.4899696 62.7728131,58.5907447 50.2904488,58.5907447 Z" id="Path-3"></path>
                            <path d="M40.7980443,26.7171534 C40.8978812,28.4406389 41.2815044,29.4681548 41.948914,29.7997012 C46.0308443,31.8274653 48.8107307,33.7318586 49.6665366,36.863332 C50.769737,40.9000443 51.0529822,48.1425152 50.5162723,58.5907447 L53.9189982,58.5907447 C54.6816304,46.9811423 54.1509925,39.1781688 52.3270843,35.1818243 C50.5031762,31.1854797 46.6601629,28.3639228 40.7980443,26.7171534 Z" id="Path-4"></path>
                        </g>
                    </g>
                </g>
            </g>
        </g>
    </g>
</svg>