<?xml version="1.0" encoding="UTF-8"?>
<svg width="66px" height="254px" viewBox="0 0 66 254" version="1.1" xmlns="http://www.w3.org/2000/svg" xmlns:xlink="http://www.w3.org/1999/xlink">
    <title>stepsbg</title>
    <defs>
        <rect id="path-1" x="0" y="0" width="66" height="254" rx="10.5"></rect>
    </defs>
    <g id="Version-1.0" stroke="none" stroke-width="1" fill="none" fill-rule="evenodd">
        <g id="Splash-Screen-Copy-10" transform="translate(-285.000000, -235.000000)">
            <g id="stepsbg" transform="translate(285.000000, 235.000000)">
                <mask id="mask-2" fill="white">
                    <use xlink:href="#path-1"></use>
                </mask>
                <g id="Mask"></g>
                <path d="M22.4214142,234.8735 C20.3874142,232.6705 18.7004142,230.8445 17.0144142,229.0185 C12.1594142,223.7625 11.6674142,218.8965 15.7604142,212.9725 C22.6114142,203.0515 29.5694142,193.2035 36.5764142,183.3925 C43.3564142,173.8975 45.3664142,163.5315 42.3514142,152.2965 C41.8584142,150.4555 40.2824142,148.9235 39.3184142,147.1865 C38.2084142,145.1865 36.1584142,143.0115 36.3524142,141.0975 C37.6234142,128.4775 32.4814142,117.5055 28.0554142,106.3385 C26.7974142,103.1665 26.4824142,100.1965 27.4834142,96.8554996 C31.5044142,83.4614996 35.1574142,69.9544996 39.3624142,56.6204996 C40.3534142,53.4824996 43.0634142,50.9134996 44.7944142,47.9724996 C45.5634142,46.6674996 46.3764142,45.0504996 46.2714142,43.6424996 C46.0594142,40.8154996 45.1824142,38.0454996 44.6624142,35.2354996 C43.2344142,27.5164996 44.1824142,20.3264996 49.7764142,14.3524996 C55.0814142,8.68849956 63.3534142,7.42549956 70.6654142,11.0144996 C77.3484142,14.2954996 80.7374142,21.1504996 79.6494142,28.8844996 C79.4464142,30.3234996 79.2224142,32.2374996 79.9514142,33.2534996 C84.8924142,40.1244996 75.9784142,54.1834996 67.8554142,52.4734996 C67.5674142,52.4124996 67.2504142,52.4994996 66.6974142,52.5324996 C66.1744142,55.6504996 66.5784142,58.1964996 68.2674142,60.8284996 C73.1114142,68.3774996 74.8314142,76.7764996 74.3784142,85.7164996 C74.2864142,87.5324996 74.7374142,89.5644996 75.5334142,91.2084996 C81.0554142,102.6035 86.6874142,113.9455 92.3814142,125.2565 C95.3204142,131.0955 94.6894142,136.9585 92.7794142,142.8295 C91.9984142,145.2305 90.0434142,147.1505 87.5604142,146.7595 C85.6154142,146.4525 83.0654142,145.0855 82.2514142,143.4565 C80.1464142,139.2405 77.6404142,134.9385 78.5214142,129.8165 C78.6004142,129.3585 78.4604142,128.7535 78.2004142,128.3635 C75.8004142,124.7605 73.3514142,121.1885 70.5354142,117.8135 C70.2494142,123.8555 71.6164142,129.3745 74.1614142,134.6595 C79.8324142,146.4355 85.3024142,158.3085 91.1214142,170.0085 C94.4524142,176.7045 96.2294142,183.6905 97.0014142,191.0765 C97.9154142,199.8155 99.1924142,208.5165 100.229414,217.2425 C100.537414,219.8385 101.759414,221.7515 104.112414,222.6775 C106.373414,223.5645 108.754414,224.2135 111.135414,224.7165 C115.988414,225.7425 118.414414,228.4725 118.586414,233.3595 C118.610414,234.0535 118.632414,234.7965 118.884414,235.4235 C120.184414,238.6505 119.587414,239.8225 116.223414,239.8475 C106.517414,239.9175 96.8094142,239.9095 87.1034142,239.8465 C83.8314142,239.8245 83.0804142,238.5215 84.3364142,235.6445 C84.5994142,235.0425 84.7214142,234.3115 84.6814142,233.6545 C83.8574142,220.1915 81.0814142,207.2515 75.6364142,194.7855 C73.6164142,190.1615 73.8184142,184.6145 72.3814142,179.6705 C71.5234142,176.7215 69.4484142,174.1245 67.9224142,171.3695 C67.5934142,171.4235 67.2644142,171.4775 66.9364142,171.5315 C65.5204142,174.9645 64.3104142,178.5015 62.6304142,181.7995 C61.0264142,184.9465 59.2784142,188.1425 56.9934142,190.7995 C50.0614142,198.8625 42.8304142,206.6695 35.7304142,214.5895 C32.9674142,217.6705 32.8354142,219.0075 35.3724142,222.3635 C38.0324142,225.8845 40.5404142,229.3345 38.4334142,234.0885 C38.2834142,234.4265 38.8514142,235.0415 38.9854142,235.5545 C39.2484142,236.5495 39.9074142,237.8155 39.5364142,238.5005 C39.1234142,239.2615 37.7584142,239.8665 36.7844142,239.9015 C32.5984142,240.0525 28.4024142,239.9705 24.2104142,239.9705 L22.4214142,234.8735 Z" id="Stroke-1" stroke="#979797" stroke-width="0.946" mask="url(#mask-2)"></path>
            </g>
        </g>
    </g>
</svg>