<?xml version="1.0" encoding="UTF-8"?>
<svg width="83px" height="278px" viewBox="0 0 83 278" version="1.1" xmlns="http://www.w3.org/2000/svg" xmlns:xlink="http://www.w3.org/1999/xlink">
    <title>temperature background</title>
    <defs>
        <rect id="path-1" x="0" y="0" width="83" height="278" rx="10.5"></rect>
    </defs>
    <g id="Version-1.0" stroke="none" stroke-width="1" fill="none" fill-rule="evenodd">
        <g id="Splash-Screen-Copy-6" transform="translate(-268.000000, -228.000000)">
            <g id="Group-14" transform="translate(25.000000, 85.000000)">
                <g id="temperature-background" transform="translate(243.000000, 143.000000)">
                    <mask id="mask-2" fill="white">
                        <use xlink:href="#path-1"></use>
                    </mask>
                    <g id="Mask"></g>
                    <g id="Group-11" mask="url(#mask-2)" stroke="#979797">
                        <g transform="translate(20.000000, 18.484969)">
                            <path d="M83.7896363,243.94627 C82.695368,244.545838 82.1181061,244.981243 81.4679426,245.200251 C76.3904929,246.910902 71.202203,246.760171 66.0310226,245.838247 C65.0665638,245.666249 64.0574713,244.786486 63.4091676,243.963806 C61.1953385,241.153636 60.6173327,237.797998 60.6214242,234.306926 C60.6217961,234.122616 60.6121255,233.909577 60.6954416,233.7581 C63.2719191,229.073489 61.9834944,224.116144 61.4185068,219.331916 C60.5488945,211.96772 59.7745006,204.641579 60.4852915,197.220299 C60.5886928,196.141674 60.3331652,195.00522 60.1118566,193.922491 C59.3538285,190.211664 58.352175,186.53964 57.8083883,182.799338 C57.4568983,180.377936 57.8080164,177.861021 57.7228405,175.391116 C57.635061,172.852562 57.6514267,170.270728 57.1790539,167.792988 C55.934147,161.266022 54.4779741,154.778231 53.0340755,148.290814 C52.7450726,146.991316 52.1387989,145.762706 51.6787003,144.501637 C51.4849159,144.484101 51.2911315,144.466566 51.097347,144.44903 C50.6610531,145.548921 50.0666816,146.613368 49.8145015,147.7543 C48.3263412,154.484977 46.760444,161.204834 45.5542196,167.988491 C45.0197316,170.995283 45.3976299,174.153925 45.1261085,177.223025 C44.7820574,181.109207 44.6098459,185.083814 43.6171191,188.820757 C42.3015423,193.77176 42.2249212,198.676871 42.2323601,203.726371 C42.240543,209.226946 41.425235,214.727894 40.9967519,220.231081 C40.7895774,222.894996 40.4771418,225.56712 40.5362814,228.228423 C40.5723603,229.838712 41.3251812,231.420645 41.5758735,233.042872 C41.7797005,234.36401 42.0348562,235.812374 41.7023355,237.051804 C41.0681657,239.416495 40.1974376,241.758427 39.0815964,243.932093 C38.6177783,244.836108 37.3449754,245.696097 36.3195173,245.873318 C31.2721953,246.743009 26.2025565,246.889263 21.2385507,245.267408 C20.5270159,245.034969 19.8753646,244.618219 19.1958173,244.286535 C19.197305,244.106329 19.1991648,243.92575 19.2006526,243.745917 C19.9571929,243.438112 20.7141053,243.13068 21.4706456,242.822128 C23.8700763,241.842001 26.3364574,240.995443 28.6495964,239.84108 C30.7179941,238.808719 31.8107747,236.974572 31.9104565,234.567348 C32.1682158,228.332144 31.9502548,222.156636 30.1671405,216.110593 C27.9105375,208.462096 27.9455005,200.636752 28.6856752,192.802826 C28.9936474,189.54382 29.8320162,186.337048 30.1831342,183.079534 C30.4204365,180.880125 30.6302146,178.543789 30.1593296,176.423477 C27.977488,166.601688 27.6252541,156.59335 26.6474052,146.638739 C25.6866659,136.85911 27.0866747,127.46004 29.7155967,118.114323 C30.1924329,116.419342 29.9912095,114.539677 30.1660247,112.751421 C31.1877633,102.312156 30.1928048,91.8807262 30.0618795,81.4463113 C30.0589039,81.2217067 29.9767036,80.9982213 29.5861591,80.7385455 C29.1346154,83.5233445 28.6261637,86.3003084 28.2456618,89.095181 C27.7096861,93.0265083 27.2782275,96.9723863 26.7783306,100.90931 C26.6693501,101.767434 26.6035155,102.673688 26.2735984,103.454207 C23.7636994,109.396157 21.4293595,115.430261 18.5653669,121.198346 C16.3459587,125.66768 15.4555173,130.139999 16.0264561,135.057795 C16.3913362,138.199275 16.4184883,141.382916 16.526725,144.549766 C16.5572246,145.451543 16.3414953,146.361527 15.9810786,147.322999 C14.0618316,145.821282 14.5483384,143.349885 13.5254839,141.162788 C13.0311662,144.308372 12.5855736,147.141674 12.1403529,149.974976 C11.8662279,149.955948 11.591731,149.936173 11.317234,149.917145 C9.62450284,147.238306 10.9839694,144.029295 10.0860892,140.767678 C9.15770925,144.043473 8.33719397,146.938709 7.5166787,149.833572 C5.72352179,148.403489 6.2449916,146.848792 6.38149618,145.385878 C6.51651298,143.936767 6.78617462,142.500342 6.99669667,141.057948 C6.84345447,141.019146 6.69058421,140.980343 6.53771396,140.941914 C6.10885897,142.328344 5.74844224,143.740891 5.23143579,145.093369 C4.76724582,146.308547 4.92829891,147.935625 2.86213284,148.800092 C2.75687181,144.327027 3.92255399,140.332646 4.26883673,136.216263 C3.01500309,137.434426 1.83146746,138.584312 0.648303774,139.734198 C0.432202516,139.597645 0.216101258,139.460718 0,139.324164 C0.180394338,138.53954 0.209778157,137.67582 0.56833515,136.984097 C1.8522965,134.507477 3.01314336,131.916315 4.64710691,129.682954 C8.65372094,124.205885 10.9464028,118.184466 11.3116548,111.407898 C11.6702118,104.764152 13.5265997,98.5009664 15.6578566,92.2254682 C16.7856001,88.9041551 16.9291717,85.1440796 16.9708298,81.575403 C17.053774,74.4253645 16.821307,67.2756991 18.0926222,60.1898334 C18.7989497,56.254402 20.1662272,52.6278953 23.8559423,50.6616721 C25.8172193,49.6166263 28.1511873,49.267034 30.3267058,48.6376187 C33.1609426,47.8175506 36.1298243,47.3220773 38.8152822,46.1613713 C42.8036709,44.4380344 44.1270586,39.2866786 42.2234334,35.3631864 C40.7166758,32.2578968 39.5323962,28.987325 38.3443972,25.738766 C37.9162861,24.5668671 37.4982176,23.2587876 38.5813275,22.0368936 C38.8680987,21.7134182 38.6731985,20.9642386 38.7077895,20.4105621 C38.8892997,17.4992831 38.9093849,14.5637528 39.3326606,11.6882912 C39.5160306,10.4428921 40.2625284,8.99191629 41.2188043,8.201696 C45.0978405,4.99567008 49.438835,3.40664827 54.4783461,5.38518376 C59.3787489,7.30887394 61.9470436,10.9208298 62.2940702,16.1572518 C62.3353563,16.7769666 62.2892349,17.4041433 62.3506062,18.0208733 C62.5217018,19.7367482 62.4792999,21.4403109 62.7895037,23.1897646 C63.1614508,25.2843334 61.8648433,27.6822303 61.2686121,29.9428275 C60.2189774,33.924896 57.4766115,37.5558798 58.9982471,42.0681197 C59.5684419,43.7589971 60.3101044,45.2685492 62.0009759,45.8457309 C64.9073704,46.8374237 67.8409171,47.9533581 70.8529446,48.3865241 C77.7782275,49.3823211 81.7033851,52.5047732 82.7150812,59.4275954 C83.5567974,65.1833689 84.0202435,71.0559219 83.9499455,76.8684062 C83.8651416,83.9132313 84.2448995,90.7438984 87.0902948,97.3092933 C89.0452487,101.819668 89.4536466,106.722914 89.7359544,111.544824 C90.1521632,118.648226 92.8688647,124.745756 96.817455,130.472802 C98.0790995,132.303217 99.0922834,134.314959 100.114766,136.297971 C100.548456,137.139306 100.713229,138.119806 101,139.037252 C100.792082,139.19358 100.583791,139.349908 100.375501,139.506609 C99.1570022,138.341799 97.9388755,137.176989 96.7412058,136.032326 C97.2682549,140.033795 97.801627,144.083768 98.3353711,148.134113 C95.9854094,147.757285 96.2230836,146.004846 95.7224428,144.769894 C95.1827475,143.437936 94.8762631,142.011585 94.2833795,140.671792 C94.0088825,143.649109 95.5398168,146.58837 94.0564918,149.585089 C92.0717821,147.020417 92.2592434,143.689404 90.8525396,140.575533 C90.1458401,143.765142 91.2839982,146.925277 89.4837743,149.716046 C88.2388674,147.078994 88.1983251,144.188608 87.4719125,140.988552 C86.9768509,143.322649 86.5703127,145.239996 86.1637746,147.157344 C85.9071311,147.149136 85.6508595,147.140555 85.394216,147.132346 C85.2502725,146.482038 84.9739158,145.82949 84.9850742,145.181793 C85.0311957,142.573096 85.0055313,139.947983 85.3004854,137.362791 C85.977801,131.421215 84.8002165,125.904597 82.1824529,120.575274 C80.5436541,117.23941 79.4389712,113.627081 77.6729664,110.368448 C74.0338361,103.652695 74.1301704,96.1564223 72.7997157,88.9582543 C72.2827092,86.16077 71.9022074,83.3379151 71.0816921,80.5090906 C71.0240403,80.9900132 70.9247304,81.4698164 70.9146879,81.9514852 C70.6807331,93.1944021 69.9613875,104.438811 70.9682482,115.679117 C71.0396621,116.477545 71.1278135,117.296494 71.370323,118.053882 C74.2257608,126.977252 75.1872441,136.182311 74.9588685,145.473929 C74.7535538,153.85295 74.0624761,162.221524 73.5112505,170.589726 C73.4141723,172.06458 72.9815978,173.522645 72.6513088,174.976232 C71.8642688,178.438576 72.0483826,181.788244 72.9220863,185.277824 C73.7429735,188.55735 73.9278312,192.024544 74.1342619,195.425327 C74.6029152,203.156278 74.0170985,210.723813 71.8925368,218.298063 C70.3106458,223.938549 70.1004957,229.956237 70.9403522,235.885128 C71.2111297,237.797998 72.4084274,239.104212 73.9724649,239.889582 C76.2286959,241.022306 78.6363094,241.852821 80.979948,242.810189 C81.7454151,243.122844 82.5131139,243.430277 83.7896363,243.94627" id="Fill-1"></path>
                            <line x1="23.3344756" y1="7.30998777" x2="33.715783" y2="9.27348446" id="Path-2"></line>
                            <line x1="25.765438" y1="0" x2="35.2848206" y2="4.58347223" id="Path-2-Copy-3"></line>
                            <line x1="22.2425161" y1="15.3184487" x2="32.8077425" y2="15.2650236" id="Path-2-Copy"></line>
                            <line x1="22.2851474" y1="21.9620382" x2="32.7651112" y2="20.6214341" id="Path-2-Copy-2"></line>
                        </g>
                    </g>
                </g>
            </g>
        </g>
    </g>
</svg>