<?xml version="1.0" encoding="UTF-8"?>
<svg width="61px" height="141px" viewBox="0 0 61 141" version="1.1" xmlns="http://www.w3.org/2000/svg" xmlns:xlink="http://www.w3.org/1999/xlink">
    <title>temperature</title>
    <defs>
        <polygon id="path-1" points="0 0 61 0 61 141 0 141"></polygon>
    </defs>
    <g id="Version-1.0" stroke="none" stroke-width="1" fill="none" fill-rule="evenodd">
        <g id="Splash-Screen-Copy-6" transform="translate(-157.000000, -215.000000)">
            <g id="Group-14" transform="translate(25.000000, 85.000000)">
                <g id="temperature" transform="translate(132.000000, 130.000000)">
                    <g id="Group-3">
                        <mask id="mask-2" fill="white">
                            <use xlink:href="#path-1"></use>
                        </mask>
                        <g id="Clip-2"></g>
                        <path d="M48.5245257,27.2057985 L55.5476438,27.2057985 L56.7132384,27.2057985 C57.8607746,27.1731536 58.8178755,28.0774183 58.8490675,29.2232555 L58.8490675,29.3358805 C58.8178755,30.5143626 57.8295826,31.4333175 56.6639879,31.4006726 L56.5999623,31.4006726 L49.6425115,31.4006726 L48.5885513,31.4006726 L48.5885513,39.872033 L54.5774094,39.872033 L56.7132384,39.872033 C57.8788331,39.8083754 58.8819011,40.6963176 58.9475684,41.8584773 C59.011594,43.0190047 58.1053853,44.0032494 56.9562074,44.0685393 L56.6820465,44.0685393 L49.5440105,44.0685393 L48.6049681,44.0685393 L48.6049681,52.6051896 L56.3241596,52.6051896 C57.9280835,52.6051896 58.8654843,53.395197 58.8654843,54.6846719 C58.8654843,55.9757791 57.9280835,56.7837412 56.3422182,56.7837412 L48.5885513,56.7837412 L48.5885513,65.2551016 L49.4799849,65.2551016 L56.4226606,65.2551016 C57.9428587,65.2551016 58.8654843,66.077754 58.8654843,67.3688611 C58.8490675,68.6436458 57.9280835,69.4499757 56.389827,69.4499757 L48.6230266,69.4499757 C48.6230266,69.7095029 48.5409425,69.9494432 48.5409425,70.1763255 L48.5409425,84.1336671 C48.5409425,84.4894969 48.6706354,84.827372 48.9283796,85.0705767 C55.0781226,89.1854707 58.5584897,95.0419719 60.0786877,102.125923 C61.5841107,109.209873 61.4380009,116.502752 58.1858277,123.27984 C53.3789811,133.2039 45.5136798,139.174659 34.5915655,140.707338 C19.2976505,142.83742 4.8623355,133.13861 1.09139059,118.213346 C-1.19054821,109.547748 0.135931318,100.319026 4.78025137,92.653995 C6.52864332,89.7012607 8.95669188,87.1990264 11.8362031,85.3284717 C12.338558,85.0542543 12.6307775,84.4894969 12.581527,83.9247395 C12.581527,60.9622928 12.6307775,38.0014783 12.5158597,15.0390315 C12.5158597,8.77773315 15.4462632,4.69548412 20.6733805,1.85700708 C23.1162042,0.549577468 25.8840811,-0.0804697629 28.6519579,0.0158327931 C31.3065587,0.0811226616 33.9759345,-0.240429941 36.564868,0.4842876 C41.4849907,1.83905237 45.3692117,4.48655654 47.6019,9.21517526 C48.2667815,10.6499201 48.5885513,12.2152447 48.5573593,13.7968918 L48.5573593,26.1725864 L48.5245257,27.2057985 Z M42.2122561,50.8456277 L42.2122561,14.0074516 C42.2631483,12.812647 41.9052615,11.6341649 41.209188,10.6662426 C39.2670775,8.02037067 36.2086229,6.42240114 32.923616,6.34242105 C31.547886,6.27713118 30.1573808,6.34242105 28.7816508,6.34242105 C26.0942164,6.29345365 23.4888662,7.21240855 21.4498964,8.94095782 C19.7179213,10.2304327 18.73127,12.2805346 18.7969373,14.4253068 C18.7969373,38.7751632 18.7969373,63.1086972 18.8445461,87.4422312 C18.9414054,88.2322386 18.4718842,88.9912333 17.728202,89.2654508 C14.5400544,90.7654855 11.8690368,93.1861074 10.0237856,96.1878091 C7.77468041,100.124788 6.5122265,104.562867 6.3989504,109.080926 C5.46154964,122.360885 15.4774551,133.881282 28.796426,134.832882 C39.3967705,135.577187 49.251791,129.330579 53.0555696,119.439164 C54.7218774,114.857447 55.127373,109.919901 54.1883306,105.127624 C52.9422935,97.9636935 49.624453,92.25083 42.7966951,89.0385685 C42.2122561,88.7496608 42.2122561,88.3464959 42.2122561,87.8290737 L42.2122561,50.8456277 Z" id="Fill-1" fill="#24557C" mask="url(#mask-2)"></path>
                    </g>
                    <path d="M35.0770388,65.6303398 L35.0770388,93.9531979 C34.9462656,94.6446342 35.4196978,95.3214283 36.1215692,95.4483272 C44.6880427,98.5052891 49.1111571,107.832358 46.0090177,116.261374 C42.9085337,124.7213 33.4597548,129.079789 24.8783831,126.024454 C16.3268079,122.967492 11.8887952,113.638796 14.9876239,105.195139 C16.6860204,100.595867 20.4072634,96.9776216 25.1068224,95.3686087 C25.6928189,95.2563519 26.0851385,94.6934414 25.9709189,94.0979928 L25.9709189,37.7255974 C25.9543653,37.0341611 26.0189242,36.3589938 26.166251,35.6838266 C26.5734689,33.5119032 28.5003047,31.9679666 30.7350369,32 C32.9863227,32.210376 34.767487,33.9625569 35.0108245,36.1653917 C35.0770388,36.6648527 35.110146,37.1464178 35.0935924,37.6458788 C35.0935924,46.9745748 35.0770388,56.3016438 35.0770388,65.6303398" id="Fill-4" fill="#EE1010"></path>
                </g>
            </g>
        </g>
    </g>
</svg>