<?xml version="1.0" encoding="utf-8"?>
<!-- Generator: Adobe Illustrator 25.4.1, SVG Export Plug-In . SVG Version: 6.00 Build 0)  -->
<svg version="1.1" id="Layer_1" xmlns="http://www.w3.org/2000/svg" xmlns:xlink="http://www.w3.org/1999/xlink" x="0px" y="0px"
	 width="110.4px" height="120px" viewBox="0 0 110.4 120" style="enable-background:new 0 0 110.4 120;" xml:space="preserve">
<style type="text/css">
	.st0{fill:#24557C;}
	.st1{fill:#EE1010;}
</style>
<g>
	<g>
		<g>
			<g>
				<g>
					<g>
						<g>
							<g>
								<path class="st0" d="M94.1,120H16.4c-9,0-16.4-7.3-16.4-16.4V25.9c0-9,7.3-16.4,16.4-16.4h2.3c2.4,0,4.6-0.7,6.5-2
									C31.7,2.8,43,0,55.2,0c11.6,0,22.6,2.6,29.2,6.9c2.6,1.7,5.4,2.6,8.2,2.6h1.4c9,0,16.4,7.3,16.4,16.4v77.7
									C110.4,112.6,103.1,120,94.1,120z M16.4,15.5C10.7,15.5,6,20.2,6,25.9v77.7c0,5.7,4.7,10.4,10.4,10.4h77.7
									c5.7,0,10.4-4.7,10.4-10.4V25.9c0-5.7-4.6-10.4-10.4-10.4h-1.4c-4,0-7.9-1.2-11.5-3.6c-5.7-3.7-15.4-6-25.9-6
									c-10.9,0-21.1,2.5-26.6,6.4c-2.9,2.1-6.3,3.1-10,3.1H16.4z"/>
							</g>
						</g>
					</g>
				</g>
			</g>
		</g>
	</g>
</g>
<g>
	<g>
		<g>
			<g>
				<g>
					<path class="st1" d="M58,44.2l-6.1,14.3H38c-2.5,0-4.7-1.7-5.4-4.2l-5-20.2c-0.9-3.5,1.8-6.9,5.4-6.9c0,0,10.5-4.4,22.7-4.4
						s22.7,4.4,22.7,4.4c3.6,0,6.2,3.4,5.4,6.9l-5,20.2c-0.6,2.5-2.8,4.2-5.4,4.2H58.5L58,44.2z"/>
				</g>
			</g>
		</g>
	</g>
</g>
</svg>
